<svg viewBox="0 0 1088 896" xmlns="http://www.w3.org/2000/svg"><defs><linearGradient id="prefix__a" x1="544.23" x2="543.86" y1="879.01" y2="621.2" gradientUnits="userSpaceOnUse"><stop stop-color="#9a7b00" offset="0"/><stop stop-color="#e7dd88" offset=".533"/><stop stop-color="#f4e400" offset="1"/></linearGradient></defs><path d="M434.52 860.26c9.118-1.956 17.883-8.377 38.044-27.873 11.425-11.048 27.706-23.317 45.776-34.5 8.192-5.068 15.486-10.992 17.467-12.592 1.8-1.454 5.642-4.092 6.622-3.566 7.93 4.255 25.222 12.18 29.995 15.17 16.645 10.425 25.767 17.291 38.197 28.75 25.596 23.594 33.604 28.595 37.944 30.78 1.594.803 3.71 1.68 5.728 2.076 6.832 1.343 30.41 3.407 33.49.326 1.651-1.65-4.942-6.807-25.762-20.147-2.643-1.694-8.266-5.855-12.494-9.247l-17.3-13.88c-5.286-4.24-12.04-9.774-15.008-12.297s-7.193-6.1-9.387-7.95c-3.715-3.133-14.27-9.97-16.785-10.873-.61-.219-.85-.68-.533-1.024 1.703-1.856 34.626 13.923 38.003 16.224 3.978 2.711 38.589 28.506 50.748 34.188 7.33 3.425 17.895 6.742 30.81 9.672 7.46 1.692 36.675 1.725 47.297.054 15.6-2.456 39.532-12.306 53.45-22 15.674-10.917 26.378-21.436 21.813-21.436-.518 0-6.343.878-12.945 1.951-24.843 4.038-61.222 4.703-85.886-4.31-88.038-32.17-56.272-26.816-102.83-42.756-25.276-8.655-41.394-7.96-72.53 3.127l-9.389 3.343-7.91-3.165c-17.67-7.07-32.642-10.302-47.53-10.26-21.338.06-37.47 5.212-60.814 19.419-5.021 3.056-12.054 6.787-15.627 8.291l-27.08 11.435c-10.595 4.783-32.371 11.124-51.48 14.26-24.943 4.094-39.041 4.011-69.053-.407-7.056-1.04-13.676-1.89-14.71-1.89h-1.882l1.736 2.963c3.971 6.777 15.956 16.655 28.167 23.216a814.833 814.833 0 0110.66 5.835c16.524 9.277 41.29 14.085 69.556 13.501 26.185-.54 45.66-6.424 65.772-19.869 11.054-7.39 28.135-19.666 32.153-23.269 2-1.792 6.213-3.97 8.868-5.734 3.035-2.016 6.501-3.199 7.967-4.243 2.418-1.721 6.226-3.343 20.774-8.847 7.437-2.814 9.397-2.16 3.1 1.033-11.179 5.67-28.66 19.01-57.354 43.767-4.9 4.228-12.428 9.926-16.726 12.66-9.524 6.06-24.577 16.909-24.61 17.738-.03.748 4.438 2.535 7.664 3.064 5.401.887 18.16.508 23.824-.708zm-116.09-69.941c14.129-1.539 40.19-7.155 45.019-7.8l23.89-7.348c10.238-3.791 12.087-4.432 14.89-5.314 9.139-2.874 31.509-10.697 35.356-15.587 3.477-4.421 3.631-4.34-14.911-7.83-21.997-4.14-40.757-14.441-59.554-32.702-8.994-8.738-19.639-17.365-46.103-37.366-5.799-4.383-15.69-12.824-21.98-18.76-13.344-12.59-15.463-14.127-17.142-12.448-.917.917-.909 2.772.037 8.62 1.711 10.58 5.252 21.097 10.887 32.33 9.49 18.922 18.126 30.683 34.041 46.363l11.828 11.653-8.85 1.151c-11.746 1.527-48.08 3.007-58.346 2.376-22.227-1.367-42.118-6.147-60.33-14.497-3.843-1.763-7.236-3.205-7.54-3.205-.303 0-1.699-.803-3.102-1.785-2.668-1.866-14.617-6.865-16.41-6.865-2.796 0 .592 7.465 8.535 18.803 10.072 14.379 27.858 29.16 46.205 38.4 11.37 5.726 29.575 10.497 47.058 12.335 6.432.675 28.402.36 36.522-.524zm501.21-.77c33.939-6.498 63.542-25.218 81.122-51.299 4.454-6.607 8.74-14.253 8.74-15.591 0-1.79-9.115 1-18.627 5.7-17.512 8.654-21.781 10.231-40.96 15.134-17.46 4.463-43.386 5.81-72.082 3.744-17.604-1.268-23.201-1.988-22.868-2.943.155-.443 6.001-6.79 12.992-14.105 6.99-7.315 14.358-15.657 16.374-18.54 5.134-7.34 13.51-21.352 16.581-27.736 6.939-14.425 12.222-40.456 8.21-40.456-1.06 0-9.011 6.555-13.99 11.533-3.769 3.77-18.378 16.006-26.39 22.105-3.818 2.908-11.012 8.396-15.985 12.196-4.974 3.8-16.179 13.476-24.9 21.501-27.507 25.308-33.31 28.632-65.217 37.349-6.69 1.827-9.749 3.336-9.749 4.807 0 1.246 21.031 13.395 28.591 16.96 0 0 34.623 13.36 45.834 15.027 7.778 2.566 43.823 5.55 43.823 5.55 10.442 1.088 41.01.499 48.501-.935z" fill="url(#prefix__a)"/></svg>