<svg width="377.951" height="324.552" viewBox="0 0 100 85.871" xmlns="http://www.w3.org/2000/svg"><path d="M50.445 0C49.597.355 16.669 21.664 0 32.824c7.876 4.284 16.106 5.478 22.778 6.002-.373 1.829-1.736 3.88-.951 6.04 1.57 2.128 3.839 3.57.841 5.73-1.392 1.84 3.354-1.764.923 1.387-1.102 1.878-2.245 4.953.807 2.209-.185 1.536-3.778 7.568.142 3.84 1.558-.416-3.178 7.678.886 4.114 2.408-1.747-1.148 7.304 1.452 4.425 2.134-3.299 1.547 9.188 3.37 3.655 1.255-2.965 1.425 4.732 3.004 5.602.688 1.442.223-6.29 1.535-1.367.749 2.02 3.324 5.574 2.8 1.183 2.257-1.09-.136 6.09 2.512 3.446-.013 2.616 3.55 6.65 3.772 2.998 1.548 1.802 5.348 4.643 5.527 2.589 1.546 3.456 4.384-1.984 4.34.89 2.504-.403 5.687-5.861 5.833-1.949 2.907-.92 2.216-6.78 4.24-4.363.249-1.541-.732-3.672 1.113-4.49.027 2.795.195 4.512 1.913 1.21.954-2.295 2.492-4.892 2.13-.624.886 1.748 2.273-6.772 3.183-5.846.917 6.067 2.156-3.264 2.83-3.854 2.784 4.068 1.276-2.34 1.222-4.1 1.687.701 3.434 2.315 2.272-.536-1.32-2.856-.924-3.734 1.554-1.68-.19-1.98-3.999-7.177.311-3.902-.107-1.971-3.88-6.687-.07-4.08-2.342-2.693-.982-4.431 1.112-6.714 1.413-2.744-3.82-6.51.762-7.224 6.054-.753 12.27-1.77 17.857-4.313z" fill="#444"/></svg>