<svg viewBox="0 0 1088 896" xmlns="http://www.w3.org/2000/svg"><defs><linearGradient id="prefix__a" x1="544.23" x2="550.06" y1="1046.5" y2="28.737" gradientUnits="userSpaceOnUse"><stop stop-color="#9a7b00" offset="0"/><stop stop-color="#e7dd88" offset=".533"/><stop stop-color="#f4e400" offset="1"/></linearGradient></defs><path d="M434.52 860.26c9.118-1.956 17.883-8.377 38.044-27.873 11.425-11.048 27.706-23.317 45.776-34.5 8.192-5.068 15.486-10.992 17.467-12.592 1.8-1.454 5.642-4.092 6.622-3.566 7.93 4.255 25.222 12.18 29.995 15.17 16.645 10.425 25.767 17.291 38.197 28.75 25.596 23.594 33.604 28.595 37.944 30.78 1.594.803 3.71 1.68 5.728 2.076 6.832 1.343 30.41 3.407 33.49.326 1.651-1.65-4.942-6.807-25.762-20.147-2.643-1.694-8.266-5.855-12.494-9.247l-17.3-13.88c-5.286-4.24-12.04-9.774-15.008-12.297s-7.193-6.1-9.387-7.95c-3.715-3.133-14.27-9.97-16.785-10.873-.61-.219-.85-.68-.533-1.024 1.703-1.856 34.626 13.923 38.003 16.224 3.978 2.711 38.589 28.506 50.748 34.188 7.33 3.425 17.895 6.742 30.81 9.672 7.46 1.692 36.675 1.725 47.297.054 15.6-2.456 39.532-12.306 53.45-22 15.674-10.917 26.378-21.436 21.813-21.436-.518 0-6.343.878-12.945 1.951-24.843 4.038-61.222 4.703-85.886-4.31-88.038-32.17-56.272-26.816-102.83-42.756-25.276-8.655-41.394-7.96-72.53 3.127l-9.389 3.343-7.91-3.165c-17.67-7.07-32.642-10.302-47.53-10.26-21.338.06-37.47 5.212-60.814 19.419-5.021 3.056-12.054 6.787-15.627 8.291l-27.08 11.435c-10.595 4.783-32.371 11.124-51.48 14.26-24.943 4.094-39.041 4.011-69.053-.407-7.056-1.04-13.676-1.89-14.71-1.89h-1.882l1.736 2.963c3.971 6.777 15.956 16.655 28.167 23.216a814.833 814.833 0 0110.66 5.835c16.524 9.277 41.29 14.085 69.556 13.501 26.185-.54 45.66-6.424 65.772-19.869 11.054-7.39 28.135-19.666 32.153-23.269 2-1.792 6.213-3.97 8.868-5.734 3.035-2.016 6.501-3.199 7.967-4.243 2.418-1.721 6.226-3.343 20.774-8.847 7.437-2.814 9.397-2.16 3.1 1.033-11.179 5.67-28.66 19.01-57.354 43.767-4.9 4.228-12.428 9.926-16.726 12.66-9.524 6.06-24.577 16.909-24.61 17.738-.03.748 4.438 2.535 7.664 3.064 5.401.887 18.16.508 23.824-.708zm-116.09-69.941c14.129-1.539 40.19-7.155 45.019-7.8l23.89-7.348c10.238-3.791 12.087-4.432 14.89-5.314 9.139-2.874 31.509-10.697 35.356-15.587 3.477-4.421 3.631-4.34-14.911-7.83-21.997-4.14-40.757-14.441-59.554-32.702-8.994-8.738-19.639-17.365-46.103-37.366-5.799-4.383-15.69-12.824-21.98-18.76-13.344-12.59-15.463-14.127-17.142-12.448-.917.917-.909 2.772.037 8.62 1.711 10.58 5.252 21.097 10.887 32.33 9.49 18.922 18.126 30.683 34.041 46.363l11.828 11.653-8.85 1.151c-11.746 1.527-48.08 3.007-58.346 2.376-22.227-1.367-42.118-6.147-60.33-14.497-3.843-1.763-7.236-3.205-7.54-3.205-.303 0-1.699-.803-3.102-1.785-2.668-1.866-14.617-6.865-16.41-6.865-2.796 0 .592 7.465 8.535 18.803 10.072 14.379 27.858 29.16 46.205 38.4 11.37 5.726 29.575 10.497 47.058 12.335 6.432.675 28.402.36 36.522-.524zm501.21-.77c33.939-6.498 63.542-25.218 81.122-51.299 4.454-6.607 8.74-14.253 8.74-15.591 0-1.79-9.115 1-18.627 5.7-17.512 8.654-21.781 10.231-40.96 15.134-17.46 4.463-43.386 5.81-72.082 3.744-17.604-1.268-23.201-1.988-22.868-2.943.155-.443 6.001-6.79 12.992-14.105 6.99-7.315 14.358-15.657 16.374-18.54 5.134-7.34 13.51-21.352 16.581-27.736 6.939-14.425 12.222-40.456 8.21-40.456-1.06 0-9.011 6.555-13.99 11.533-3.769 3.77-18.378 16.006-26.39 22.105-3.818 2.908-11.012 8.396-15.985 12.196-4.974 3.8-16.179 13.476-24.9 21.501-27.507 25.308-33.31 28.632-65.217 37.349-6.69 1.827-9.749 3.336-9.749 4.807 0 1.246 21.031 13.395 28.591 16.96 0 0 34.623 13.36 45.834 15.027 7.778 2.566 43.823 5.55 43.823 5.55 10.442 1.088 41.01.499 48.501-.935zm-26.43-53.275c13.159-.829 65.607-13.09 83.615-19.547 2.907-1.043 10.367-3.506 16.577-5.475s11.533-3.972 11.83-4.452c.296-.48 1.196-.872 2-.872.802 0 5.426-1.83 10.274-4.066 27.938-12.887 46.693-29.284 61.448-53.719 8.678-14.37 14.132-31.51 16.4-51.539.367-3.243.157-4.084-1.023-4.084-.817 0-8.02 6.384-16.007 14.187s-17.548 16.591-21.248 19.53c-8.282 6.576-24.988 17.827-32.515 21.899-9.326 5.043-32.253 14.757-53.983 22.87-6.21 2.318-11.053 3.118-11.053 1.825 0-.618 1.732-5.858 3.848-11.644 3.323-9.085 5.922-18.411 9.63-34.549 2.898-12.622 4.05-24.18 4.067-40.846.024-23.255-1.067-36.521-3.004-36.521-1.223 0-8.182 10.54-16.314 24.709-4.31 7.511-7.838 13.836-7.838 14.056s-2.324 5.32-5.164 11.332c-5.94 12.576-9.44 22.16-18.379 50.336-3.522 11.101-7.226 22.449-8.231 25.218-6.113 16.833-20.45 38.455-36.893 55.643-3.252 3.4-5.788 6.307-5.635 6.46.283.283 3.038.166 17.598-.75zm-479.58-.552c0-.529-.357-.961-.794-.961-2.743 0-18.413-18.43-28.964-34.066-9.81-14.538-18.14-34.596-23.971-57.718-2.22-8.8-11.008-33.735-14.905-42.288-4.48-9.832-9.716-19.929-11.836-23.768-2.335-4.229-4.082-7.039-6.035-11.071-2.47-5.267-9.521-15.618-10.639-15.618-1.357 0-2.688 7.023-4.792 25.28-1.936 16.8.189 51.197 3.782 61.218.474 1.321 1.438 4.349 2.143 6.727.705 2.379 1.834 5.406 2.509 6.728.674 1.321 1.229 2.98 1.232 3.684.003.705 1.303 4.522 2.89 8.482 1.585 3.96 2.882 7.862 2.882 8.67 0 2.023-5.37 1.268-13.455-1.89-12.918-5.048-29.575-12.025-37.002-15.501-4.228-1.98-8.77-4.101-10.091-4.715-8.396-3.902-22.25-13.126-32.67-21.751-6.465-5.35-4.754-3.794-20.65-18.786-15.552-14.668-19.515-17.75-20.588-16.013-.847 1.37.911 14.854 3.165 24.27 3.192 13.336 7.782 23.185 18.101 38.836 7.366 11.171 11.038 15.306 20.926 23.563 15.68 13.093 32.516 21.67 64.393 32.804 6.079 2.124 12.35 4.206 13.936 4.628s4.83 1.438 7.208 2.26c14.743 5.086 48.191 13.31 67.276 16.54 8.869 1.5 25.95 1.801 25.95.456zm-101.88-81.25c0-.286-.837-2.16-1.86-4.165-9.9-19.404-16.832-65.427-17.504-116.2-.16-12.062-.824-19.218-2.9-31.235l-3.77-21.836c-.594-3.436-1.358-14.897-1.699-25.47-.511-15.883-.861-19.221-2.015-19.221-2.31 0-11.274 11.918-15.902 21.144-6.668 13.293-9.98 23.64-11.998 37.482-2.586 17.738-3.164 30.923-1.94 44.21.583 6.344 1.314 14.236 1.624 17.54.664 7.096-.376 7.682-5.557 3.13-1.801-1.581-7.628-6.23-12.948-10.331-23.86-18.388-40.985-35.893-53.286-54.469-6.091-9.197-7.375-11.426-16.105-27.951-9.34-17.683-10.835-20.05-11.955-18.93-1.831 1.832-4.091 15.092-4.045 23.735.165 31.025 3.826 45.863 17.033 69.036 3.873 6.795 18.4 24.362 23.908 28.91 1.224 1.011 7.847 7.282 14.719 13.936 24.294 23.524 45.844 39.968 74.337 56.722 16.538 9.725 31.863 16.441 31.863 13.965zm674.49-2.706c9.222-3.89 33.142-17.065 44.406-24.46 21.613-14.19 39.992-29.481 62.528-52.023 12.54-12.544 19.43-20.27 23.2-26.012 4.67-7.112 11.6-19.703 11.24-20.418-.069-.135.611-1.976 1.51-4.09 2.753-6.466 7.247-25.258 8.134-34.007 1.911-18.846-.05-41.952-3.503-41.244-.768.157-4.982 7.206-9.363 15.664-22.581 43.59-38.185 62.286-74.621 89.407-10.404 7.744-13.92 9.824-14.92 8.825-.324-.325.157-3.747 1.07-7.604 2.218-9.365 3.01-34.967 1.518-49.06-2.902-27.398-11.965-50.635-27.438-70.35-2.574-3.28-3.397-.443-3.908 13.47-.468 12.729-2.027 32.721-2.955 37.897-.237 1.322-.866 6.512-1.398 11.533-.532 5.022-1.399 11.885-1.926 15.252-.527 3.366-1.354 16.341-1.837 28.832-.757 19.54-2.36 35.797-4.359 44.186-.295 1.238-.775 4.05-1.066 6.247-1.734 13.094-9.685 43.525-14.667 56.134-2.438 6.171-2.123 6.24 8.355 1.821zm78.259-123.53c16.45-17.062 27.571-31.308 45.107-57.777 16.288-24.587 31.428-61.693 34.168-83.745.99-7.971.98-35.414-.017-42.041-2.87-19.09-11.94-47.173-15.246-47.204-.897-.01-2.238 4.32-5.581 18.014-6.24 25.56-15.416 52.263-25.017 72.803-5.3 11.338-14.843 34.288-18.782 45.17-1.722 4.758-3.335 8.002-3.583 7.209s-1.448-5.55-2.666-10.572c-5.79-23.88-13.78-42.86-28.323-67.276-6.886-11.56-8.207-13.445-19.035-27.151-6.55-8.292-8.855-9.95-9.464-6.808-.674 3.47 1.224 30.316 2.978 42.128 2.628 17.7 4.508 25.4 13.145 53.82a9930.1 9930.1 0 017.56 24.99c3.2 10.636 7.064 37.512 7.74 53.82.372 8.986 1.351 16.588 1.53 17.252.22.812 2.017 18.789 3.626 18.789.467 0 5.804-5.14 11.86-11.421zm-825.41 4.934c.353-2.511 1.276-14.043 2.05-25.625.774-11.584 2.269-26.288 3.321-32.677 2.036-12.36 5.544-29.2 6.356-30.515.27-.435 1.057-2.849 1.75-5.363 1.346-4.879 8.938-29.596 12.033-39.171 3.056-9.459 6.615-33.324 8.727-58.53 1.42-16.935.064-17.79-9.385-5.922-18.468 23.195-36.672 53.818-43.456 73.101-3.213 9.133-7.39 24.132-7.968 28.618-.573 4.435-.604 2.794-2.907-2.255-1.916-4.202-2.52-7.505-4.148-11.307-1.413-3.298-21.105-47.972-25.966-62.588-5.064-15.226-9.055-29.913-12.287-45.213-2.764-13.088-4.254-17.512-5.74-17.037-2.577.825-9.374 16.705-13.462 31.454-5.339 19.264-4.443 56.92 1.833 77.074 3.208 10.299 8.315 21.68 9.596 24.801 2.011 4.901 4.58 9.267 6.92 14 5.282 10.682 20.957 35.694 29.172 46.549 9.22 12.182 23.31 28.014 31.22 35.08 4.143 3.7 8.192 7.484 8.998 8.409 2.187 2.51 2.637 2.121 3.343-2.883zm-27.992-126.23c.68-3.674 12.923-37.998 18.298-48.736 6.506-12.996 9.986-17.909 28.912-40.812 21.396-25.895 30.72-41.01 37.072-60.105 2.753-8.274 7.255-30.898 6.562-32.976-.755-2.266-42.111 30.125-64.451 56.049-11.314 13.129-19.116 23.555-20.028 17.86-1.133-7.082-3.586-22.86-4.864-33.433-.356-2.946-1.174-6.367-1.285-7.689-.112-1.321-.68-7.376-1.264-13.455-1.93-20.108-2.501-32.925-2.395-53.821l.106-20.663-5.272 5.766c-2.9 3.172-7.135 8.578-9.412 12.014-3.69 5.568-5.831 9.523-12.097 22.343-.969 1.981-2.957 8.252-4.418 13.936-3.62 9.747-2.642 19.825-2.625 30.036.038 23.232 2.627 42.09 8.772 63.912 6.022 21.387 7.827 28.252 8.842 33.638 2.407 12.767 4.87 20.89 12.034 39.688 2.476 6.499 4.285 13.384 4.581 15.21.58 3.568 1.507 8.95 2.09 5.799zm867.6.655c0-1.801 5.401-18.264 7.591-23.139 2.74-6.098 5.463-15.124 9.717-32.21 2.172-8.722 4.314-16.94 4.762-18.26 3.94-11.64 8.725-30.135 10.628-41.078 1.764-10.148 1.852-10.664 2.78-16.35 2.754-16.895 3.002-39.017.556-49.734-4.462-19.544-12.8-36.125-25.861-51.427-7.386-8.653-7.155-8.972-7.124 9.85.028 17.097-1.41 43.438-3.11 56.954-.53 4.23-1.099 10.284-1.261 13.455-.163 3.172-.553 6.416-.868 7.209-.314.793-1.024 4.685-1.576 8.65l-4.78 24.326c-.596 1.593-.939 1.512-4.033-.96-1.86-1.487-4.692-4-6.292-5.586-11.387-11.284-27.453-26.58-36.392-34.647-5.814-5.248-10.788-9.762-11.052-10.033-.264-.27-2.643-2.4-5.286-4.732a685.362 685.362 0 01-9.61-8.68c-5.897-5.447-10.08-8.704-11.183-8.704-1.194 0-1.028 3.343.498 10.03a345.91 345.91 0 012.412 11.7c1.168 6.33 8.75 26.446 13.414 35.59 3.935 7.715 13.865 22.98 17.674 27.171 21.65 23.82 33.817 40.478 41.042 56.19 3.763 8.185 15.432 41.668 15.432 44.282 0 .819.432 1.488.96 1.488.53 0 .962-.61.962-1.355z" fill="url(#prefix__a)"/></svg>