<svg width="1983.103" height="846.487" xmlns="http://www.w3.org/2000/svg">
  <g fill="#6f5835" fill-opacity=".08">
    <path
      d="M1341.598.26c58.48-1.098 117.32 1.404 175.66 5.314 54.94 3.682 109.75 8.728 164.83 10.03 44.54 1.053 88.67-1.895 133.09-4.486L1978.758.387c.06.16.11.321.17.481 2.41 6.327-2.03 29.195-2.69 37.118-2.64 31.683-3.98 63.815-4.03 95.613 2.1 2.343 5.21 1.216 8.23 2.167 1.69 6.664-2 28.485-2.71 36.391-1.79 19.965-4.8 48.348-3.05 68.165 2.77 2.78 5.15.816 7.82 3.034-2.47 29.76-6.88 58.466-6.2 88.507.52 22.571 4.49 44.532 5.68 66.902-2.23 1.454-4.89.891-7.52.872-2.26 1.494-1.86 2.066-1.48 4.722 6.38 45.238 10.95 88.346 10 134.14-.18 8.535.69 18.604-1.25 26.861l-4.2.86c-3.3 3.497-2.63 13.747-2.83 18.585-1.28 29.883.3 59.21 2.6 89 .55 7.213 3.88 27.957 1.77 33.523-2.25.115-4.5.263-6.75.45-3.74 6.09 9.79 120.121 5.65 130.532-113.25-1.285-226.07-7.943-339.2-12.357-80.24-3.13-160.61-4.733-240.91-4.229-104.55.657-209.29 6.352-313.61 13.187-65.6 4.298-131.672 10.544-197.408 11.532-34.54.52-69.284-3.694-103.716-6.2-45.447-3.31-91.073-5.58-136.611-7.164-101.706-3.2-203.303-5.796-305.067-4.122-112.53 1.852-224.956 8.176-337.494 9.621 1.173-20.374 1.904-40.673.95-61.078-.708-15.149-2.766-30.59-2.734-45.723.014-6.69 5.758-18.788 3.977-24.388H2.487c-.342-.539-.86-1-1.026-1.615-.97-3.57 1.945-19.538 2.371-24.106 2.322-24.855 8.957-91.472 1.79-114.893-.985-.235-3.519-.75-4.168-1.549-1.071-1.322-.948-11.29-1.02-13.243-1.366-36.715.586-73.429 4.558-109.93.444-4.077 5.065-37.738 4.238-39.793-.218-.543-.67-.96-1.006-1.44l-5.203-.083-1.01-1.297c2.776-33.029 6.073-66.155 4.609-99.344-.482-10.908-5.297-50.17-3.652-56.893.977-.173 2.03-.316 2.97-.636.413-.14 1.578-.705 1.842-1 4.022-4.5-6.339-101.548-4.212-105.969a25.685 25.685 0 005.699-.593c4.83-6.96-3.187-117.66-4.285-134.281 84.525 1.334 168.81 12.667 253.372 14.298 47.8.922 95.502-2.626 143.263-4.04 33.49-.991 66.962-.36 100.42 1.254 122.582 5.916 244.24 20.217 367.18 19.551 63.64-.344 126.51-6.99 189.81-12.539 93.97-8.237 188.25-16.652 282.57-18.989z" />
    <path
      d="M86.479 180.194c144.705-10.147 284.382 38.225 428.327 38.696 75.109.246 147.582-20.544 222.697-19.749 76.598.81 151.509 15.205 227.716 19.864 55.049 3.365 110.129-7.114 165.249-7.58 49.29-.416 98.12 8.513 147.35 6.622 55.94-2.148 109.96-13.743 165.07-22.212 40.78-6.265 82.3-10.11 123.59-9.869 45.15.264 89.77 6.015 134.49 11.53 67.22 8.288 134 16.444 201.87 12.454 19.69-1.158 40.5-2.449 59.79-6.683.07.14.15.276.21.42.11.236.2.48.31.717.3.698.27.548.55 1.338 2.06 5.925 1.3 30.725-1.17 35.967l-3.05.851c-70.94-.596-141.62 2.178-212.51 3.212-45.28.66-90.51-.129-135.78-.25l-85.31.557c-47.44-.09-94.82-3.152-142.25-3.27l-1364.996.101c.347-19.045-.005-38.143-1.233-57.152 22.923-2.858 46.021-4.323 69.08-5.564zM1338.318 761.26c137.92-2.412 275.75.857 413.62 4.705 48.08 1.343 96.15 3.003 144.18 5.493 21.97 1.138 45.02 1.07 66.75 4.424.09.154.18.311.27.463.54.856 1.1 1.723 1.39 2.7 1.82 6.04 3.8 43.25 1.07 47.946-192.48-3.293-384.42-18.82-577.03-17.169-106.72.915-213.53 7.45-320.01 14.262-57.83 3.7-115.886 8.988-173.832 9.996-38.802.674-77.611-3.504-116.28-6.214-40.134-2.813-80.311-4.426-120.508-5.992-95.951-2.966-191.903-4.928-287.904-4.092-67.37.586-134.72 3.02-202.051 5.253-50.733 1.683-102.163.956-152.742 4.642 1.117-9.719 1.095-19.575 1.317-29.348 103.856-4.962 208.066-12.984 312.074-12.6 69.457.254 138.462 8.856 207.957 7.068 55.355-1.425 110.63-5.182 165.907-8.274l150.519-7.1c161.713-7.13 323.503-11.39 485.303-16.164zM19.159 56.102c78.713 16.822 152.663 37.533 234.17 33.05 64.434-3.545 122.062-17.04 188.093-13.937 49.684 2.335 95.492 14.998 143.839 25.214 46.356 9.796 93.52 16.545 140.903 18.328 87.53 3.293 173.276-6.454 260.214-14.447 100.61-9.249 201.75-18.25 302.66-23.146 47.35-2.297 95.07-2.688 142.17 3.263 55.32 6.99 108.84 19.782 165.01 20.056 69.54.34 138.54-13.638 206.94-24.69 46.54-7.52 93.42-13.308 140.29-18.263 6.42-.465 12.78-1.324 19.15-2.144.31.514.56.935.69 1.528 1.35 6.004-1.45 70.877-3.87 74.973-63.44.941-126.99.221-190.45.193l-412.99-.083-1334.963-.148c.377-26.543-.658-53.234-1.856-79.747z" />
    <path
      d="M16.673 147.276c56.612-.919 113.686-1.12 170.295-.126 29.445.518 58.649 2.437 88.154 2.314l1151.366-1.897 332.33-.036c69.68.063 139.47.921 209.13-.5.29.587.54 1.168.72 1.797 1.41 4.945-2.6 43.788-5.01 48.111-13.51 4.938-45.42 5.865-60.64 6.781-118.74 8.825-233.65-26.049-351.48-23.636-38.89.797-77.47 4.82-115.87 10.934-50.11 7.977-99.62 18.453-150.45 20.874-51.85 2.47-102.87-6.659-154.6-6.334-56.74.358-113.01 10.8-169.808 7.31-73.903-4.54-146.66-18.467-220.918-19.252-24.553-.26-48.981.853-73.358 3.87-27.895 3.453-55.517 8.88-83.448 12.033-27.651 3.121-55.545 4.048-83.354 3.276-90.991-2.524-179.532-22.628-269.621-33.205-70.997-8.336-142.283-7.63-213.263.67-.718-8.509-4.02-24.603-2.065-32.25zM20.518 399.833l903.27-.239c43.642.177 87.23 3.125 130.88 3.2l519.89-2.957c61.66-.149 123.12 3.26 184.73 3.614 66.9.384 133.97-2.285 200.88-3.159.55.707 1.13 1.504 1.46 2.345 2.91 7.39 7.95 46.125 5.28 52.524-10.88-4.72-27.51-5.425-39.41-6.565-7.73-2.679-19.28-2.779-27.58-3.625-48.48-4.945-97.55-6.199-146.26-7.255-68.08-1.475-136.32-2.888-204.42-2.506-76.82.431-153.45 3.193-230.22 5.54l-338.22 12.378-270.65 12.588c-47.093 2-94.241 4.468-141.38 4.961-56.705.593-113.36-1.982-169.868-6.578-50.203-4.082-100.378-9.867-150.716-12.087-77.904-3.436-156.66 1.472-234.07 10.714 1.48-21.017 4.06-41.958 6.404-62.893zM16.14 12.094c82.9 2.121 165.43 12.523 248.347 13.981 37.64.662 75.222-1.632 112.827-2.894 41.283-1.386 82.649-1.645 123.92.27 119.96 5.561 236.91 20.29 357.705 19.122 66.178-.638 131.609-6.374 197.479-12.04 45.92-3.95 91.89-7.033 137.86-10.434 55.4-4.1 110.51-8.335 166.1-8.622 99.74-.515 198.41 10.608 297.89 14.744 65.71 2.732 131.17-2.103 196.7-6.15 36.82-2.275 74.86-2.947 111.36-8.125 1.99 5.99-.66 35.371-3.64 41.442-14.56 2.27-29.5 3.34-44.19 4.595-10.69 2.387-22.43 2.891-33.35 4.193-19.58 2.336-39.11 4.932-58.61 7.89-88.65 13.443-177.28 33.934-267.48 26.842-40.78-3.206-80.68-11.817-121.13-17.342-35.62-4.866-71.56-6.395-107.5-5.765-57.77 1.013-115.45 5.774-173.03 10.352-57.4 4.563-114.8 9.01-172.13 14.453-79.921 7.59-159.153 16.29-239.591 14.973-48.833-.799-98.054-6.484-145.893-16.243-59.55-12.146-106.894-26.813-168.851-28.98-58.817-2.058-116.065 11.215-174.465 14.336-50.874 2.718-99.714-2.409-149.503-12.913-29.513-6.226-58.71-14.058-88.32-19.807-.904-12.622-1.828-25.24-2.504-37.878zM1057.808 623.252c78.52-3.167 157.96 2.18 236.3 7.045 84.36 5.24 168.73 10.582 253.19 13.832 57.66 2.22 115.52 2.807 173.21 1.367 80.66-2.014 161.24-7.189 241.88-10.214.43.698.8 1.41 1.12 2.17 1.42 3.398 4.46 56.077 3.44 58.753-43.14-1.106-86.48-.253-129.63-.188l-217.16.151-492.93-3.163c-67.92-.097-135.74 3.16-203.71 2.824l-910.117.353c1.864-15.258 3.04-30.637 4.062-45.972 97.39-7.197 193.826-22.338 291.605-24.854 53.769-1.384 107.492 1.94 161.156 4.83 67.919 3.658 135.867 7.436 203.89 8.426 57.757.84 115.497-.24 173.188-3.077 70.2-3.45 140.266-9.119 210.506-12.283zM559.642 253.26l803.586-.15c54.64.278 109.2 4.661 163.79 4.74 27.29.037 54.57-.947 81.85-.909 45.31.062 90.48.967 135.81.196 74.39-1.266 148.57-4.192 223-3.543.06.13.12.255.17.387.08.217.15.44.22.66.07.18.14.356.2.537 1.77 5.502-.88 16.808-1.46 22.75-.97 10.093-.49 53.648-3.31 59.253-12.78-2.656-26.67-3.517-39.66-4.87-39.72-4.14-79.8-6.17-119.7-7.803-74.33-3.04-148.72-2.828-223.09-3.848-53.55-.734-107.1-2.539-160.61-4.534-134.2-4.246-268.6-10.662-402.88-8.83-151.553 2.068-303.035 12.577-454.593 13.61-51.421.351-102.864-.026-154.218-2.895-53.075-2.966-106.13-8.469-159.314-8.867-52.034-.39-103.696 4.716-155.432 9.522-25.496 2.37-51.065 3.953-76.539 6.532.241-24.012-1.553-47.749-3.976-71.62z" />
    <path
      d="M1030.068 565.254l934.84.492c.15.31.35.66.44 1.003 1.44 5.483-1.14 17.264-1.5 23.384-.69 11.747.38 24.018-.84 35.63-.14 1.37-.65 2.65-1.24 3.883-55.94 1.321-111.78 5.121-167.67 7.502-72.01 3.067-143.57 4.33-215.62 2.233-88.51-2.574-176.91-8.135-265.28-13.453-69.67-4.193-139.01-8.556-208.84-8.88-54.47-.253-108.79 3.48-163.102 7.133-22.142 2.101-44.651 2.747-66.866 4.063-100.398 5.951-200.393 6.115-300.858 1.698-76.96-3.384-153.98-10.104-231.034-10.282-108.811-.25-216.427 16.021-324.648 25.191 1.366-26.932 1.58-52.27-1.005-79.159zM1105.928 705.242c36.7-1.289 73.49 1.33 110.16 2.358 38.22 1.074 76.74.662 114.98.605l628.12-.726c.55.816 1.05 1.682 1.34 2.625 1.81 5.758 4.28 55.54 2.03 60.074-85.72-8.054-172.59-8.34-258.61-10.84-102.59-2.98-205.24-5.546-307.89-4.634-69.78.62-139.53 2.991-209.27 5.18l-333.7 12.127-153.95 7.232c-60.834 3.318-121.651 7.313-182.588 8.187-62.155.891-124.088-7.329-186.248-7.514-104.577-.31-209.563 7.801-313.97 13.228-.132-16.557-8.281-72.67 1.974-83.6.511-.545 1.523-1.485 2.277-1.692 9.18-2.532 43.443-.813 55.403-.83l158.75.173 483.89-.145 214.674.25c57.388.074 115.328.976 172.628-2.058zM997.468 313.24c69.38-1.953 138.95-.132 208.3 1.848l295.07 9.668c154.71 4.212 309.35-.278 463.35 18.121.11.161.22.317.32.482 2.62 4.467 5.19 39.746 3.74 45.133-31.3 1.582-62.98 1.392-94.35 1.931-45.38.78-90.88 1.88-136.27 1.206-49.45-.734-98.78-2.899-148.26-2.62l-354.52-.264c-85.85.397-169.68 3.653-255.83 1.052-46.017-1.055-91.98-.55-138-.6l-232.58-.038-594.51-.174c1.878-19.388 3.195-38.663 3.606-58.142 27.049-2.792 54.217-4.767 81.3-7.26 52.587-4.84 104.968-9.584 157.85-8.944 46.723.566 93.145 5.316 139.733 8.27 42.505 2.696 85.183 3.552 127.768 3.683 157.74.485 315.609-9.138 473.283-13.352zM1528.038 441.26c61.24-1.274 122.63.932 183.87 1.83 66.87.978 132.97 1.748 199.5 9.387 18.7 2.147 38.48 3.704 56.72 8.506.75 1.203 1.45 2.355 1.74 3.764 2.47 12.005 4.99 81.992-.39 90.107l-283.79-.126c-40.94-.06-81.88-1.22-122.81-.83-14.23.135-28.52 2.182-42.69 3.412-15.81 1.373-31.68 1.954-47.55 1.965-37.74.026-75.28-4.51-112.96-4.547l-913.16 1.147-434.98-.96c-.677-28.983-.473-57.705 2.24-86.589 76.295-8.627 153.02-14.469 229.832-11.04 50.95 2.274 101.549 7.842 152.34 12.128 53.835 4.543 108.125 7.635 162.166 7.032 51.516-.574 102.936-3.135 154.396-5.454l226.536-10.522c196.21-8.757 392.62-15.503 588.99-19.21z" />
    <path
      d="M1454.578 505.258c24.64-.488 163.93-1.546 174.05 7.408l-.2 1.397c-2.72 1.057-90.56-3.429-102.29-3.519-78.48-.607-156.77 3.003-235.12 7.04-35.41 1.737-70.76 4.004-106.12 6.5-16.68 1.176-33.91 3.606-50.59 3.776-2.92.03-5.74-.022-8.34-1.498l-.05-1.434c1.93-1.602 4.18-2.209 6.61-2.633 9.23-1.609 19.36-1.373 28.73-2.045l61.63-4.408c76.99-5.128 154.52-9.239 231.69-10.584z" />
  </g>
</svg>